<svg xmlns="http://www.w3.org/2000/svg" width="240" height="324" fill="none" id="geeky-man"><path fill="#fff" fill-rule="evenodd" d="M194.637 251.935a497.918 497.918 0 0 1-2.342-14.47 388.466 388.466 0 0 1-.96-6.894c-.207-1.612-.522-3.455.574-4.649 1.543-1.681 2.945-3.12 3.134-5.527.177-2.265-.588-4.734-1.067-6.933-1.004-4.611-2.254-9.164-3.635-13.675-1.403-4.583-2.941-9.122-4.502-13.653-1.459-4.237-2.862-8.511-4.762-12.576-3.607-7.713-9.708-13.425-17.249-17.239-1.875-.949-5.7-4.335-7.659-5.093-1.802-.697-1.795 1.338-3.568.572-1.417-.613-2.737-1.431-3.53-2.799-.862-1.487-3.022-3.566-3.351-5.296-.697-3.667.058-6.788-2.559-9.548-2.322-2.451-5.444-4.131-8.674-5.032-7.107-1.983-16.584-.597-20.871 6.009-2.048 3.155-2.764 6.968-5.527 9.543-2.413 2.248-1.873 3.784-4.998 4.943-.177.066-4.974-.964-5.151-.898-3.419-.732-6.686 1.317-9.823 2.506-4.676 1.772-9.128 4.079-13.31 6.82-8.434 5.528-15.657 12.706-21.612 20.829-6.004 8.19-10.663 17.369-13.98 26.963-.806 2.33-1.53 4.689-2.167 7.071-.358 1.333-.74 2.715-.304 4.08.355 1.116 1.147 1.948 2.076 2.618 1.26.908 3.787 1.498 3.738 3.324-.038 1.389-.509 2.85-.739 4.223-.273 1.634-.498 3.278-.723 4.919-1.022 7.471-1.818 14.985-2.17 22.519-.347 7.419-.634 14.99-.12 22.406.034.489.18.938.415 1.318-.22.084-.236.493.037.551l.574.122c.397.301.893.485 1.464.503.387.012.773.03 1.16.05 4.077.852 8.154 1.658 12.285 2.268a306.68 306.68 0 0 0 15.11 1.837c10.38 1.009 20.68.675 31.074.131a397.25 397.25 0 0 1 31.139-.401c10.398.271 20.793.724 31.193.909 11.62.206 23.221-.111 34.807-1.035 1.589-.127 2.572-1.391 2.258-2.969-1.877-9.457-4.004-18.85-5.685-28.347Z" clip-rule="evenodd"></path><path fill="#000" fill-rule="evenodd" d="M94.698 148.487c1.074-.047 2.17.127 3.242.233.093.009.129.153.023.175-1.918.401-3.816.949-5.7 1.506l-.807.239c-2.124.629-4.187 1.278-6.244 2.116-4.099 1.672-7.993 3.928-11.576 6.519-13.798 9.981-23.785 25.091-30.087 40.735a111.212 111.212 0 0 0-5.145 16.274c-.075.318-.401 1.133-.222 1.458.158.288.772.466 1.057.615l.964.5c1.88.969 5.01 2.562 5.325 2.718l.49.241c8.009 3.928 16.566 7.259 25.58 7.489l.07-.77c.402-4.257.93-8.536 2.08-12.662.062-.222.344-.147.37.05.641 4.885.436 9.807.212 14.714-.396 8.691-.922 17.378-1.39 26.065-.233 4.346-.536 8.689-.81 13.033-.273 4.352-.361 8.809-.986 13.126-.14.962-1.266 1.485-2.119 1.384-.944-.113-1.67-.944-1.674-1.898-.012-2.514.304-5.059.48-7.567.166-2.383.345-4.765.529-7.147.67-8.693 1.44-17.376 2.154-26.065.253-3.082.526-6.161.806-9.24-9.547-.308-18.467-3.846-26.977-7.98-.123 2.798-.42 5.591-.708 8.377-.804 7.774-1.513 15.546-2.043 23.345a476.537 476.537 0 0 0-.633 11.827 360.622 360.622 0 0 0-.251 7.757l-.03 1.481c-.023.938-.118 1.808-.908 2.491-.801.694-1.884.731-2.678 0-1.062-.979-.874-2.312-.843-3.626a353.812 353.812 0 0 1 .375-9.972c.399-7.743 1.195-15.455 2.235-23.136l.407-2.965c.758-5.512 1.59-11.15 3.286-16.459a349.5 349.5 0 0 1-1.974-.992c-1.163-.589-2.366-1.142-3.497-1.792-.897-.516-1.67-1.224-1.92-2.268-.279-1.164.147-2.436.43-3.571l.025-.1c.277-1.143.576-2.281.891-3.414a112.64 112.64 0 0 1 4.709-13.494c3.703-8.799 8.483-17.158 14.323-24.716 5.256-6.804 11.465-12.974 18.742-17.601 3.558-2.262 7.35-4.12 11.359-5.433 1.874-.614 3.913-1.148 5.876-1.367a46.38 46.38 0 0 1 3.181-.233Zm19.038-13.943c1.277-1.371 3.814.048 3.2 1.864-1.442 4.274-3.738 8.172-7.322 10.98-3.369 2.639-7.386 4.354-11.713 3.988a.259.259 0 0 1-.087-.024l.372.506c2.927 3.961 6.015 7.867 9.737 11.105 7.583 6.596 17.908 10.154 27.878 7.623 7.843-1.991 14.754-8.196 16.786-16.104a1.61 1.61 0 0 1-1.017.093c-1.626-.353-3.236-2.064-4.285-3.291a15.586 15.586 0 0 1-2.67-4.38c-1.189-2.964-1.57-6.781.053-9.652.201-.354.662-.156.702.19l.061.539c.313 2.691.703 5.294 1.972 7.748.62 1.2 1.364 2.372 2.27 3.377.485.538 1.01 1.052 1.577 1.503.553.44 1.222.757 1.718 1.262l.09.096.003-.017c.125-1.065.872-1.535 1.603-1.505.707.028 1.538.34 1.859.489l.031.014c4.933 2.369 9.477 5.457 13.753 8.883 8.843 7.086 15.468 16.348 18.679 27.255 1.575 5.354 2.479 10.87 3.434 16.36l.587 3.364c.891 5.069 1.886 10.237 3.897 14.952.52 1.219.119 2.363-1.156 2.843a308.712 308.712 0 0 1-4.792 1.751c.786 3.374 1.265 6.865 1.854 10.255 1.252 7.207 2.786 14.368 4.102 21.565.672 3.68 1.279 7.373 1.951 11.053.323 1.772.661 3.542.989 5.314.177.955.337 1.913.506 2.87l.029.159c.097.504.219 1.026.08 1.531-.158.576-.608.983-1.009 1.396-.33.34-.807.342-1.212.157l-.133-.062c-.723-.338-1.289-.675-1.545-1.491-.162-.516-.221-1.098-.327-1.63-.203-1.019-.396-2.04-.578-3.064-.365-2.049-.72-4.099-1.068-6.151l-.324-1.921c-1.114-6.622-2.171-13.283-2.706-19.975-.237-2.968-.488-5.934-.742-8.901l-.19-2.225c-.241-2.816-.535-5.703-.577-8.558l-.957.34-4.671 1.652c-1.159.41-2.633 1.249-3.88 1.096-.61-.075-1.075-.267-1.434-.616a318.81 318.81 0 0 0 1.788 18.166c.706 5.488 1.489 10.969 2.413 16.424.458 2.702.929 5.401 1.44 8.092.255 1.347.519 2.691.791 4.034.135.67.296 1.34.402 2.016.121.773-.092 1.249-.524 1.886-.355.522-1.065.791-1.64.43-.762-.478-1.159-.893-1.383-1.764-.204-.791-.328-1.617-.485-2.418-.291-1.479-.572-2.96-.844-4.442a291.103 291.103 0 0 1-1.558-9.328c-1.647-10.983-2.692-22.059-3.22-33.153a294.154 294.154 0 0 1-.295-16.43c.024-2.809.116-5.625.314-8.426.202-2.836.62-5.615.993-8.424.013-.099.153-.104.159 0 .177 3.149.454 6.294.59 9.451.129 3.012.186 6.029.289 9.043.136 3.961.324 7.925.572 11.885.45-.492 1.129-.777 1.808-.666.984-.206 2.043-.722 2.98-1.036l3.536-1.181a478.871 478.871 0 0 1 5.582-1.836c-1.668-5.612-2.81-11.308-3.785-17.086l-.435-2.599c-.861-5.116-1.79-10.234-3.349-15.188a48.59 48.59 0 0 0-7.349-14.435c-3.208-4.321-7.112-8.126-11.131-11.685-3.441-3.047-7.122-5.798-10.631-8.761.036.196.044.412.012.65-.746 5.463-3.595 10.551-7.566 14.335-7.976 7.603-19.783 9.18-29.992 5.615-9.875-3.448-18.606-11.615-21.691-21.722-.053-.172.179-.241.272-.114.17.235.343.469.515.704a.225.225 0 0 1 .152-.239c3.599-1.391 7.133-3.362 9.831-6.151a21.177 21.177 0 0 0 3.368-4.562c.434-.795.824-1.619 1.135-2.471l.079-.22c.377-1.067.692-2.155 1.479-3Z" clip-rule="evenodd"></path><path fill="#fff" fill-rule="evenodd" d="M162.571 89.561c-.502-6.497.276-13.308-2.229-19.484-4.366-10.247-16.61-13.664-26.103-17.565-3.803-1.124-16.599-1.282-21.052-2.77-10.077-3.366-12.485-7.378-20.492-.967-1.352 1.095-2.198 2.285-2.815 3.912l.026.007c-.177.678.012 1.354.41 1.871-3.473 3.55-4.925 8.873-3.144 13.599 5.813 12.298 5.54 18.948 3.667 32.169-2.446 12.343 3.143 16.852 12.4 23.568-.377.731-.455 1.702.037 2.347 10.704 15.048 30.887 22.233 48.18 14.595 7.019-3.125 10.153-10.604 11.941-17.351 2.084-7.556 2.724-15.518 1.028-23.214-.684-3.56-1.576-7.093-1.854-10.717Z" clip-rule="evenodd"></path><path fill="#000" fill-rule="evenodd" d="M100.826 17.571c1.3-.195 2.281.611 2.748 1.748l.024.061c.15.387.317.763.497 1.133 3.251-1.596 7.89-1.186 9.948 2.046 1.468 2.308.573 5.047.019 7.494l-.363 1.613c.702.447 1.232 1.248 1.207 2.077l-.003.064-.148 2.249a11.64 11.64 0 0 0 1.28-1.545c.265-.484.55-.96.856-1.42 1.802-2.712 5.848-.355 4.361 2.548-.286.56-.607 1.091-.951 1.602a14.15 14.15 0 0 0-.953 2.328c.704.306 1.244.986 1.302 2.014.133 2.398-1.127 4.4-3.129 5.657-.59.37-1.198.442-1.75.305-.097.13-.194.262-.287.395a12.726 12.726 0 0 1 2.138 2.209 38.44 38.44 0 0 1 5.611-.415c2.29-1.122 5.033-1.099 7.494-.678 1.584.27 3.106.797 4.665 1.175 1.643.398 3.312.412 4.975.683 2.096.34 3.934 1.308 5.09 2.853 1.269.038 2.604.558 3.712 1.264 2.577 1.644 5.14 3.312 7.711 4.967.987.635 1.356 1.65 1.174 2.78l-.012.073-.087.47.204.288c.786 1.111 1.643 2.276 2.152 3.503a37.816 37.816 0 0 1 2.548 4.252c1.016 1.974 1.855 4.066 2.423 6.214.141.543.283 1.09.376 1.644.133.782-.072 1.389-.184 2.139-.139.951-.19 1.915-.338 2.868-.099.632-.636.943-1.198.96.212 1.608.364 3.227.509 4.833.205 2.295.345 4.597.465 6.898.621.903 1.891 1.617 2.808 1.865 1.27.34 2.601-.03 3.801-.463.754-.273 1.373.676 1.005 1.31-1.155 1.991-3.627 1.983-5.499 1.101-.792-.372-1.487-.91-2.003-1.612l.099 2.005.032.607c.381 7.087 1.202 14.418-.129 21.435-2.305 12.155-12.359 21.41-24.642 22.128-6.445.378-11.813-1.527-14.482-2.589-2.669-1.063-1.631-3.229.222-2.61 3.191 1.067 9.055 2.656 14.302 1.97 12.368-1.617 22.855-7.801 21.778-34.435-.153-3.777-.624-7.556-.725-11.333-.097-3.692-.061-7.387-.224-11.077l-.054-1.259c-.064-1.47-.132-2.949-.242-4.422-.133-.57-.243-1.15-.405-1.71a25.508 25.508 0 0 0-1.735-4.419c-.158.12-.336.207-.528.241-1.46.262-2.829.188-4.196-.42a6.6 6.6 0 0 1-1.724-1.119 2.627 2.627 0 0 1-.547-.648c-.661.01-1.322-.189-1.736-.664-.473-.542-.551-1.102-.366-1.62l.019-.052-.046-.017c-.558 1.444-1.669 2.714-2.888 3.572-1.927 1.361-4.338 1.754-6.649 1.79-2.552.038-5.244-.355-7.762-.756a22.822 22.822 0 0 1-1.975-.39c-.026.026-.051.056-.079.08-2.161 2.07-5.201 2.603-7.943 1.421-1.585-.683-2.914-1.781-4.088-3.041-.017.66-.051 1.319-.108 1.972l-.024.26c-.117 1.215-.342 2.506-1.26 3.383-1.486 1.423-3.641.852-5.354-.073.002.044.002.09.002.137l1.392 4.721.1.336c.338 1.118.709 2.237.811 3.407.194 2.236-1.293 4.445-3.778 3.695-1.303-.392-2.347-1.489-3.349-2.367l-.631-.546c1.633 5.341 2.766 10.872 2.871 16.446.007.302-.253.53-.541.541a5.148 5.148 0 0 1-2.07-.374c-.038-.003-.076-.005-.116-.011a7.848 7.848 0 0 1-3.169-1.198c.217.691.315 1.433.258 2.208-.015.188-.309.254-.351.047-.545-2.682-3.683-4.71-6.387-4.196-2.903.552-5.04 3.05-5.564 5.893-.563 3.054.513 6.586 2.505 8.942.917 1.086 2.123 1.993 3.556 2.221a4.527 4.527 0 0 0 1.97-.118c.271-.08.525-.192.783-.298.376-.152.815-.175 1.17-.336.805-.361 1.614.38 1.206 1.207-.355.721-.674 1.207-1.263 1.579.477.583.911 1.394 1.071 1.612.82 1.108 1.652 2.154 2.586 3.166a27.215 27.215 0 0 0 3.084 2.834l.461.365c1.057.838 1.976 1.614 2.721 2.816.588.949-.173 2.236-1.274 2.222-3.443-.049-5.947-3.076-7.73-5.72a14.572 14.572 0 0 1-.714-1.187 2.52 2.52 0 0 1-.268.359l.196.528c.583 1.556-1.929 2.572-2.658 1.12a22.136 22.136 0 0 0-1.83-3.001 1.55 1.55 0 0 1-1.018-.619c-.555-.805-1.178-1.619-1.704-2.477a21.529 21.529 0 0 0-.898-.803c-.09.078-.18.156-.267.239-.384.877-.86 1.678-1.449 2.432l-.126.161c-1.13 1.424-2.6 2.881-4.42 3.229-.556.106-1.09-.585-.598-1.027 1.274-1.145 2.78-1.925 3.955-3.204.578-.63 1.11-1.324 1.567-2.051l.104-.168c.076-.125.154-.249.234-.376l-1.59-1.089c-1.46 1.248-3.361 1.819-4.976 2.852l-.16.105c-1.46.977-2.998-1.183-1.828-2.369 1.29-1.302 2.367-2.855 3.51-4.302-.537-.991-.791-2.162-.887-3.345-.037-.335-.067-.671-.096-1.006-.82.013-1.644-.268-2.341-.752l-.264-.188a7.902 7.902 0 0 1-2.588.378c-2.003-.059-2.823-2.348-1.57-3.796 1.278-1.479 3.516-1.803 5.288-1.084.057-.03.116-.061.173-.093a2.049 2.049 0 0 1 .03-1.052l-.027-.188a4.862 4.862 0 0 1-.743-2.004 4.667 4.667 0 0 1 .07-1.703c.045-.187.136-.382.206-.578a3.734 3.734 0 0 1-.255-1.118 2.404 2.404 0 0 1-.118-.15c-.88-1.236-.702-2.725.135-3.725.004-.063.01-.127.018-.19a5.237 5.237 0 0 1-.135-.334c-.818-.826-1.418-1.819-1.306-3.05a3.163 3.163 0 0 1 .813-1.863c-.08-.236-.087-.51.01-.738-.719-1.912-.628-4.214-.111-6.353a2.874 2.874 0 0 1-.16-1.052c.059-1.588 1.432-3.046 3.059-3.027.195.002.379.027.555.065l.002-.038c.063-.476.194-.917.385-1.312a.83.83 0 0 1-.257-.147 14.46 14.46 0 0 1-3.302 1.271c-.85.213-1.722-.754-1.193-1.552.245-.37.516-.704.807-1.007-.414.002-.835.03-1.26.085-.765.099-1.62-.423-2.115-1.129-.617.6-1.237 1.198-1.856 1.797-1.567 1.52-3.935.401-4.183-1.603a3.524 3.524 0 0 1-1.284-.638 21.943 21.943 0 0 1-7.85 1.776c-1.953.08-3.094-2.194-2.181-3.8a12.688 12.688 0 0 1 2.25-2.888c-1.36.417-2.766.717-4.2.91-.775.103-1.872-.54-2.182-1.252-1.188-2.739-1.086-5.594.28-8.26.053-.105.113-.207.17-.308a15.8 15.8 0 0 1 .462-1.044c-1.681-1.754-1.827-4.362-.92-6.546-.364-.59-.504-1.3-.257-1.942a16.632 16.632 0 0 1 2.998-5.024 5.347 5.347 0 0 1-.32-.758c-.721-2.188.113-4.828 1.797-6.352 1.059-.96 2.276-1.534 3.575-1.902.547-.968 1.25-1.84 2.07-2.576.032-.07.064-.14.1-.21 1.276-2.404 3.6-3.694 6.09-3.992.097-.94.731-1.838 1.652-2.13a7.744 7.744 0 0 1 1.152-2.297c.817-1.112 2.176-1.636 3.456-.907.702.4 1.373.858 2.003 1.365a2.74 2.74 0 0 1 .965-.246l.091-.005 2.083-.106c.873-.387 1.743-.793 2.616-1.188a7.01 7.01 0 0 1 1.747-1.063 7.098 7.098 0 0 1 2.204-.53c.602-.197 1.208-.37 1.825-.506a20.131 20.131 0 0 1 4.47-.48c.031-.389.047-.783.044-1.182l-.004-.2c-.033-1.278.987-2.3 2.189-2.48Zm-1.46 102.304a6.684 6.684 0 0 1-.625.106c.063.156.127.313.188.469.17.095.34.186.511.271a4.37 4.37 0 0 1-.074-.846Zm-10.854-3.226-.14.258-.068.126a4.6 4.6 0 0 1 .894.017v-.032c-.039-.013-.077-.025-.113-.042a4.869 4.869 0 0 1-.573-.327Zm5.866-11.805c1.87.109 3.453.396 5.153 1.214l.146.071c1.502.746 3.987 2.124 3.777 4.1-.059.562-.466 1.154-1.109 1.11-1.76-.121-2.765-1.896-3.957-3.003-1.202-1.116-2.679-2.264-4.134-3.031-.206-.108-.125-.45.099-.461h.025Zm-8.476-26.036c-.448.015-.298.45-.067.086a.645.645 0 0 1 .067-.086Zm24.177-29.066c-4.242.112-8.511 2.618-11.689 5.15-2.764 2.204-5.151 4.824-7.265 7.649a44.045 44.045 0 0 0-1.405 4.29c-.26.955-.423 1.92-.64 2.885l-.068.295c-.17.32-.298.663-.39 1.019.385.386.885.663 1.435.794a.893.893 0 0 1 .44.255c.443-.74.83-1.52 1.056-2.347l.008-.038a48.342 48.342 0 0 1 2.767-4.051c2.733-3.604 5.744-6.888 9.363-9.62 2.744-2.072 5.812-3.695 9.074-4.75a9.91 9.91 0 0 0-2.686-1.53Z" clip-rule="evenodd"></path><path fill="#000" fill-rule="evenodd" d="M143.152 128.274a8.601 8.601 0 0 1-3.614-2.781 1.671 1.671 0 0 1-.338-1.297c.076-.467.352-.889.728-1.173.377-.284.849-.424 1.305-.353.397.062.791.279 1.104.73l.065.09a5.695 5.695 0 0 0 2.086 1.751 4.7 4.7 0 0 0 2.582.454c1.738-.196 2.935-1.136 4.208-2.413.158-.161.316-.327.474-.496a.746.746 0 0 1 .394-.303.864.864 0 0 1 .97.332c.097.143.153.32.135.524-.117 1.323-.808 2.503-1.79 3.43-1.091 1.03-2.537 1.742-3.898 1.992-1.499.275-3.027.078-4.411-.487Zm5.119-20.408c1.595.971 4.026 3.233 2.31 5.638-2.021 2.12-4.929-.311-6.362-1.411-1.329-.852-2.823 1.34-1.59 2.335 10.358 7.671 14.561-6.308 6.449-7.702-.894-.154-1.225.84-.807 1.14Zm-18.56-8.923c.176-2.189 3.508-2.686 3.84-.52.296 1.94-.053 3.723-.927 5.47-.834 1.668-2.932.89-3.091-.63-.213-2.037.068-2.958.178-4.32Zm25.365-.969c.465-.609 1.136-1.024 1.939-.79 2.511.735 1.771 4.301.889 6.037-.479.942-2.028 1.181-2.728.351-1.14-1.353-1.687-4.056-.236-5.39.039-.068.083-.138.136-.208Zm-22.487-8.608.397-.07c1.227-.212 2.752-.416 3.62.57.461.524.619 1.497 0 1.998-1.088.88-2.292.54-3.596.614a14.3 14.3 0 0 0-3.143.536c-2.272.65-4.123 1.835-6.063 3.137-.254.17-.514-.155-.393-.393 1.12-2.195 3.29-3.997 5.464-5.096 1.161-.587 2.43-1.073 3.714-1.296Zm20.198-.983.304.062c3.304.69 7.596 2.07 9.16 5.317.06.459-.003.557-.054.621l-.017.022c-.043.055-.076.13-.275.193a8.562 8.562 0 0 1-.168-.042c-.717-.188-1.284-.447-1.833-.716l-.596-.293c-.691-.34-1.388-.666-2.127-.907a25.038 25.038 0 0 0-4.844-1.07 1.988 1.988 0 0 1-.972-.37 1.464 1.464 0 0 1-.544-.827c-.116-.467-.082-.82.168-1.242.188-.316.458-.535.767-.661a1.798 1.798 0 0 1 1.031-.087Z" clip-rule="evenodd"></path><path fill="#000" fill-rule="evenodd" d="M152.745 131.526c-1.967-1.754-4.173-5.279-6.999-2.489-.699.788-.983 2.555-2.052 2.901-1.419.461-2.826-1.042-3.31-2.196-1.98-6.412 6.203-8.17 10.865-7.134 2.278.935 3.955 4.702 4.057 6.667.065 1.321-1.052 3.263-2.561 2.251m14.844-9.883a1.11 1.11 0 0 0-.079-.232c-.87-.329-1.558.007-1.984.634.014.155.061.313.09.468-.328.692-.625 1.548-1.069 2.146a.76.76 0 0 1-.267-.028c-7.376.77-3.775-6.95-11.256-8.868-5.783-.954-16.235.139-18.963 6.161-2.152 9.618-13.092 2.916-16.684-2.086-3.833-4.552-6.311-10.115-8.7-15.513-.505-1.142-2.081-.325-1.91.771-2.208 4.432-2.135 9.756-2.682 14.612-.93 9.687-1.837 23.272 7.161 29.187 11.722 13.255 40.995 17.933 54.516 5.754 4.68-10.067 4.103-22.348 1.827-33.006" clip-rule="evenodd"></path><path fill="#000" fill-rule="evenodd" d="M166.085 109.758c-1.423 1.912-4.06 2.521-6.492 2.311-5.246-.505-6.897-6.466-7.069-11.098 3.518.99-.298-6.022 11.727-6.793 4.239-.353 3.071 2.208 4.944 4.08-.039 3.927-.692 8.194-3.11 11.5m-24.987-4.512c-3.097 14.51-20.058 11.058-21.839-2.021 1.645-1.162 1.212-4.03 3.255-5.07 3.24-2.07 7.289-1.981 10.967-1.933 4.702.323 6.042 2.272 8.457 4.398-.116 1.419-.451 3.102-.84 4.626m31.705-13.47a26.913 26.913 0 0 0-.522-.082 1.563 1.563 0 0 0-.481-.173 8.202 8.202 0 0 0-1.264-.219c-6.028-1.357-19.973.57-20.549 5.716-1.919.64-3.58.067-5.805.124-1.694-7.081-30.972-6.082-32.38-1.813l-.016-.004c-1.353-.419-3.347-.318-4.896-.384a42.522 42.522 0 0 0-9.852.923c-6.058.963-14.326 2.09-10.113 9.659a.02.02 0 0 1 .003.004v-.001c.727.745 1.959.145 2.005-.863-1.417-3.585 1.783-4.016 4.244-5.046 6.126-2.202 12.362-2.507 18.697-1.826.477.562 1.2 1.051 1.964 1.307 4.236.704 2.003 3.847 4.681 4.304-.492 10.957 12.805 16.937 20.51 9.735 3.076-3.009 3.81-7.466 4.523-11.484.377-.084.617-.291.757-.564.907-.906 1.477-1.742 3.27-1.99 1.794-.25 3.174.25 3.361.402.047.095.098.19.156.285.082.142.194.255.321.344-1.771 10.911 6.696 17.811 15.243 12.152 3.714-3.495 4.499-8.846 4.654-13.622.504-.304.823-.893.648-1.633-.24-1.021.323-1.905 1.22-2.349 1.166-.576.96-2.681-.379-2.903" clip-rule="evenodd"></path></svg>